<?xml version="1.0" standalone="no"?>
<!DOCTYPE svg PUBLIC "-//W3C//DTD SVG 20010904//EN"
 "http://www.w3.org/TR/2001/REC-SVG-20010904/DTD/svg10.dtd">
<svg version="1.0" xmlns="http://www.w3.org/2000/svg"
 width="360.000000pt" height="360.000000pt" viewBox="0 0 360.000000 360.000000"
 preserveAspectRatio="xMidYMid meet">
<metadata>
Created by potrace 1.14, written by Peter Selinger 2001-2017
</metadata>
<g transform="translate(0.000000,360.000000) scale(0.100000,-0.100000)"
fill="#000000" stroke="none">
<path d="M2285 3576 c-45 -17 -108 -60 -141 -96 -16 -18 -37 -41 -46 -51 -10
-11 -18 -21 -18 -24 0 -3 0 -10 0 -16 0 -5 -5 -7 -10 -4 -6 4 -9 3 -8 -2 2 -7
-10 -45 -39 -123 -3 -8 -8 -24 -10 -35 -9 -40 -12 -50 -14 -50 -2 0 -8 -38
-13 -80 -2 -16 -4 -30 -5 -30 -2 0 -4 -8 -6 -17 -2 -10 1 -18 6 -18 6 0 7 -6
2 -12 -4 -7 -9 -33 -10 -58 -5 -68 -7 -84 -18 -101 -12 -18 -80 -50 -140 -65
-95 -24 -165 -36 -230 -40 -44 -3 -86 -6 -92 -6 -17 -2 -16 9 -18 -308 -1
-151 -5 -322 -9 -380 -4 -58 -9 -130 -11 -160 -2 -30 -6 -96 -8 -145 -1 -50
-6 -96 -11 -103 -4 -6 -3 -12 3 -12 6 0 6 -11 1 -30 -6 -21 -5 -28 2 -24 7 4
8 2 4 -4 -8 -14 -15 -91 -21 -242 -2 -63 -5 -115 -5 -115 -1 0 -4 -79 -6 -175
-6 -210 -5 -200 -16 -200 -5 0 -6 -4 -3 -10 10 -16 -3 -12 -48 17 -61 40 -79
51 -107 65 -14 7 -27 15 -30 19 -3 3 -32 16 -65 29 -33 12 -69 26 -80 31 -11
5 -40 11 -65 15 -24 3 -48 8 -52 10 -5 3 -8 0 -8 -7 0 -8 -3 -9 -13 0 -8 6
-16 9 -18 7 -3 -3 -117 -17 -156 -19 -7 0 -13 -3 -13 -7 0 -4 -11 -6 -24 -5
-14 2 -27 -3 -30 -12 -3 -8 -10 -12 -16 -8 -5 3 -23 -1 -40 -10 -16 -8 -30
-12 -30 -8 0 5 -4 4 -8 -2 -4 -5 -24 -18 -44 -29 -20 -10 -46 -27 -58 -38 -11
-10 -20 -16 -20 -13 0 2 -9 -3 -21 -13 -75 -62 -126 -125 -158 -197 -12 -27
-26 -57 -30 -65 -11 -21 -11 -199 0 -206 5 -3 9 -16 9 -29 0 -13 5 -27 10 -30
6 -4 8 -11 5 -16 -4 -5 -1 -9 6 -9 7 0 10 -3 6 -6 -3 -3 3 -15 14 -27 10 -11
19 -27 19 -34 0 -7 4 -13 9 -13 5 0 13 -9 16 -20 3 -11 13 -20 21 -20 8 0 14
-7 14 -15 0 -8 7 -15 16 -15 9 0 18 -9 21 -20 3 -11 9 -17 14 -14 5 3 9 1 9
-4 0 -14 117 -66 182 -81 4 -1 27 -9 50 -18 49 -18 228 -27 228 -11 0 6 7 8
15 4 8 -3 15 0 15 6 0 6 3 9 6 5 6 -5 99 19 119 31 6 4 19 8 30 10 29 5 50 10
50 12 0 1 10 3 23 6 44 8 88 37 147 98 33 35 60 67 60 72 1 17 47 84 58 84 6
0 8 3 4 6 -3 4 1 21 10 38 17 32 20 42 27 88 3 15 7 32 11 38 3 5 2 17 -3 27
-6 9 -6 29 -2 45 6 18 5 28 -2 28 -7 0 -7 5 -1 13 8 10 10 140 3 172 -1 6 -1
12 0 15 4 11 21 339 19 385 -2 47 -2 48 4 80 3 17 7 83 9 147 2 65 5 118 8
118 3 0 5 57 5 128 0 70 5 150 11 177 5 28 8 82 6 120 -10 182 -8 188 61 219
28 13 70 29 92 36 22 7 49 19 60 26 11 7 22 13 25 13 17 1 70 25 70 32 0 5 3
8 8 7 13 -4 86 49 144 105 10 9 18 12 18 6 0 -5 4 -8 8 -5 14 8 32 -18 101
-149 8 -16 16 -36 17 -42 1 -7 9 -20 18 -29 9 -8 14 -20 11 -25 -4 -5 -2 -9 4
-9 5 0 17 -18 27 -40 10 -22 20 -40 24 -40 3 0 14 -17 25 -37 11 -21 24 -43
30 -49 5 -6 17 -22 25 -34 14 -21 32 -43 69 -85 9 -11 34 -33 55 -50 20 -16
43 -35 50 -41 22 -21 100 -57 131 -62 55 -8 145 -3 145 8 0 3 10 6 21 7 12 1
29 9 38 17 10 9 23 16 29 16 7 0 11 4 10 9 -2 5 8 18 21 30 13 12 20 21 16 21
-5 0 0 6 11 14 10 8 19 18 19 23 1 4 9 24 20 43 11 19 20 38 21 43 1 4 3 10 4
15 1 4 2 10 1 15 0 4 3 7 9 7 5 0 10 9 10 19 0 20 40 71 56 71 8 0 39 12 147
54 15 6 27 14 27 18 0 5 4 7 8 6 22 -7 89 88 98 137 1 6 4 21 7 35 3 14 8 41
11 60 3 19 9 49 13 65 10 48 12 156 2 149 -5 -3 -9 7 -9 23 0 29 -15 93 -29
128 -8 19 -35 104 -37 115 -4 27 -27 90 -34 95 -6 4 -8 10 -5 15 3 5 1 11 -5
15 -5 3 -10 15 -10 26 0 10 -5 19 -11 19 -5 0 -8 4 -4 9 3 5 0 13 -5 16 -12 7
-34 55 -32 68 1 4 -5 7 -13 7 -14 0 -20 13 -15 35 1 5 -1 7 -5 3 -4 -4 -18 5
-31 20 -13 15 -35 39 -48 54 -13 14 -27 24 -30 21 -3 -4 -6 -1 -6 6 0 7 -4 9
-10 6 -5 -3 -10 -3 -10 2 0 14 -78 43 -122 46 -10 1 -18 4 -18 7 0 3 -12 5
-27 4 -16 -2 -41 -4 -58 -5 -16 -2 -32 -6 -35 -10 -8 -11 -80 25 -80 40 0 8
-3 12 -6 8 -4 -3 -25 14 -48 38 -59 64 -66 73 -66 85 0 5 -6 10 -13 10 -7 0
-23 9 -35 20 -12 12 -22 18 -22 15 0 -4 -12 2 -27 13 -48 33 -121 45 -168 28z"/>
</g>
</svg>
